<svg width="2246" height="573" viewBox="0 0 2246 573" fill="none" xmlns="http://www.w3.org/2000/svg">
<path d="M183 88H153V509H183V88Z" fill="white"/>
<path d="M597 88H153V98H597V88Z" fill="white"/>
<path d="M597 88H585V168H597V88Z" fill="white"/>
<path d="M337 482H153V509H337V482Z" fill="white"/>
<path d="M350.5 310C378 254 427 234 473.5 236L447 259.5C406.5 269 381.5 289.5 364.5 331.5L350.5 310Z" fill="white"/>
<path d="M446.5 472C529 481 578 415 559.5 350.5L581.5 334C619 419 539.5 520 433.5 491.5L446.5 472Z" fill="white"/>
<path d="M251 228.5C234 227.5 229.5 229.5 215.5 233.5C290 319 345.893 424.727 388.5 561.5C453.5 411 552 322.5 723 231C691 229.5 673.549 228.696 641 228.5H633C501.467 306.245 447.984 364.662 389 495.5C356.147 383.228 328.379 324.647 261 228.5H251Z" fill="white"/>
<path d="M723 180.5C560 268.5 449.5 362 389 512L386 505C341 363.5 283.5 260.5 216.5 184C232.107 177.197 247 175.5 257.5 180C271.5 186 312 249 375.5 359.5C425.5 270.5 510.5 208.531 562 186C586 175.5 657.523 179.115 723 180.5Z" fill="#0085FF"/>
<path d="M305.25 122H302.984V113.547H305.25V122ZM302.852 111.359C302.852 111.021 302.964 110.742 303.188 110.523C303.417 110.305 303.727 110.195 304.117 110.195C304.503 110.195 304.81 110.305 305.039 110.523C305.268 110.742 305.383 111.021 305.383 111.359C305.383 111.703 305.266 111.984 305.031 112.203C304.802 112.422 304.497 112.531 304.117 112.531C303.737 112.531 303.43 112.422 303.195 112.203C302.966 111.984 302.852 111.703 302.852 111.359ZM309.442 113.547L309.513 114.492C310.112 113.758 310.922 113.391 311.942 113.391C313.031 113.391 313.778 113.82 314.185 114.68C314.778 113.82 315.625 113.391 316.724 113.391C317.64 113.391 318.323 113.659 318.771 114.195C319.218 114.727 319.442 115.529 319.442 116.602V122H317.177V116.609C317.177 116.13 317.083 115.781 316.896 115.562C316.708 115.339 316.377 115.227 315.903 115.227C315.226 115.227 314.757 115.549 314.497 116.195L314.505 122H312.247V116.617C312.247 116.128 312.151 115.773 311.958 115.555C311.765 115.336 311.437 115.227 310.974 115.227C310.333 115.227 309.869 115.492 309.583 116.023V122H307.325V113.547H309.442ZM321.51 120.891C321.51 120.531 321.63 120.24 321.869 120.016C322.114 119.792 322.419 119.68 322.783 119.68C323.153 119.68 323.458 119.792 323.697 120.016C323.942 120.24 324.064 120.531 324.064 120.891C324.064 121.245 323.945 121.534 323.705 121.758C323.465 121.977 323.158 122.086 322.783 122.086C322.413 122.086 322.109 121.977 321.869 121.758C321.63 121.534 321.51 121.245 321.51 120.891ZM336.496 119.016C336.496 118.573 336.34 118.234 336.027 118C335.715 117.76 335.152 117.51 334.34 117.25C333.527 116.984 332.884 116.724 332.41 116.469C331.118 115.771 330.473 114.831 330.473 113.648C330.473 113.034 330.645 112.487 330.988 112.008C331.337 111.523 331.835 111.146 332.48 110.875C333.131 110.604 333.861 110.469 334.668 110.469C335.48 110.469 336.204 110.617 336.84 110.914C337.475 111.206 337.967 111.62 338.316 112.156C338.671 112.693 338.848 113.302 338.848 113.984H336.504C336.504 113.464 336.34 113.06 336.012 112.773C335.684 112.482 335.223 112.336 334.629 112.336C334.056 112.336 333.611 112.458 333.293 112.703C332.975 112.943 332.816 113.26 332.816 113.656C332.816 114.026 333.001 114.336 333.371 114.586C333.746 114.836 334.296 115.07 335.02 115.289C336.353 115.69 337.324 116.188 337.934 116.781C338.543 117.375 338.848 118.115 338.848 119C338.848 119.984 338.475 120.758 337.73 121.32C336.986 121.878 335.983 122.156 334.723 122.156C333.848 122.156 333.051 121.997 332.332 121.68C331.613 121.357 331.064 120.917 330.684 120.359C330.309 119.802 330.121 119.156 330.121 118.422H332.473C332.473 119.677 333.223 120.305 334.723 120.305C335.28 120.305 335.715 120.193 336.027 119.969C336.34 119.74 336.496 119.422 336.496 119.016ZM343.204 111.469V113.547H344.649V115.203H343.204V119.422C343.204 119.734 343.264 119.958 343.384 120.094C343.504 120.229 343.733 120.297 344.071 120.297C344.321 120.297 344.543 120.279 344.735 120.242V121.953C344.293 122.089 343.837 122.156 343.368 122.156C341.785 122.156 340.978 121.357 340.946 119.758V115.203H339.712V113.547H340.946V111.469H343.204ZM350.006 122.156C348.766 122.156 347.756 121.776 346.975 121.016C346.199 120.255 345.811 119.242 345.811 117.977V117.758C345.811 116.909 345.975 116.151 346.303 115.484C346.631 114.812 347.094 114.297 347.693 113.938C348.297 113.573 348.985 113.391 349.756 113.391C350.912 113.391 351.821 113.755 352.482 114.484C353.149 115.214 353.482 116.247 353.482 117.586V118.508H348.1C348.172 119.06 348.391 119.503 348.756 119.836C349.126 120.169 349.592 120.336 350.154 120.336C351.024 120.336 351.704 120.021 352.193 119.391L353.303 120.633C352.964 121.112 352.506 121.487 351.928 121.758C351.35 122.023 350.709 122.156 350.006 122.156ZM349.748 115.219C349.3 115.219 348.936 115.37 348.654 115.672C348.378 115.974 348.201 116.406 348.123 116.969H351.264V116.789C351.253 116.289 351.118 115.904 350.857 115.633C350.597 115.357 350.227 115.219 349.748 115.219ZM355.597 122V115.203H354.339V113.547H355.597V112.828C355.597 111.88 355.867 111.146 356.409 110.625C356.956 110.099 357.719 109.836 358.698 109.836C359.011 109.836 359.394 109.888 359.847 109.992L359.823 111.742C359.636 111.695 359.407 111.672 359.136 111.672C358.287 111.672 357.862 112.07 357.862 112.867V113.547H359.542V115.203H357.862V122H355.597ZM365.82 122C365.716 121.797 365.641 121.544 365.594 121.242C365.047 121.852 364.336 122.156 363.461 122.156C362.633 122.156 361.945 121.917 361.398 121.438C360.857 120.958 360.586 120.354 360.586 119.625C360.586 118.729 360.917 118.042 361.578 117.562C362.245 117.083 363.206 116.841 364.461 116.836H365.5V116.352C365.5 115.961 365.398 115.648 365.195 115.414C364.997 115.18 364.682 115.062 364.25 115.062C363.87 115.062 363.57 115.154 363.352 115.336C363.138 115.518 363.031 115.768 363.031 116.086H360.773C360.773 115.596 360.924 115.143 361.227 114.727C361.529 114.31 361.956 113.984 362.508 113.75C363.06 113.51 363.68 113.391 364.367 113.391C365.409 113.391 366.234 113.654 366.844 114.18C367.458 114.701 367.766 115.435 367.766 116.383V120.047C367.771 120.849 367.883 121.456 368.102 121.867V122H365.82ZM363.953 120.43C364.286 120.43 364.594 120.357 364.875 120.211C365.156 120.06 365.365 119.859 365.5 119.609V118.156H364.656C363.526 118.156 362.924 118.547 362.852 119.328L362.844 119.461C362.844 119.742 362.943 119.974 363.141 120.156C363.338 120.339 363.609 120.43 363.953 120.43ZM371.786 113.547L371.856 114.523C372.461 113.768 373.27 113.391 374.286 113.391C375.182 113.391 375.849 113.654 376.286 114.18C376.724 114.706 376.948 115.492 376.958 116.539V122H374.7V116.594C374.7 116.115 374.596 115.768 374.388 115.555C374.179 115.336 373.833 115.227 373.349 115.227C372.713 115.227 372.237 115.497 371.919 116.039V122H369.661V113.547H371.786ZM383.783 122C383.679 121.797 383.603 121.544 383.557 121.242C383.01 121.852 382.299 122.156 381.424 122.156C380.596 122.156 379.908 121.917 379.361 121.438C378.82 120.958 378.549 120.354 378.549 119.625C378.549 118.729 378.879 118.042 379.541 117.562C380.208 117.083 381.169 116.841 382.424 116.836H383.463V116.352C383.463 115.961 383.361 115.648 383.158 115.414C382.96 115.18 382.645 115.062 382.213 115.062C381.833 115.062 381.533 115.154 381.314 115.336C381.101 115.518 380.994 115.768 380.994 116.086H378.736C378.736 115.596 378.887 115.143 379.189 114.727C379.491 114.31 379.919 113.984 380.471 113.75C381.023 113.51 381.643 113.391 382.33 113.391C383.372 113.391 384.197 113.654 384.807 114.18C385.421 114.701 385.728 115.435 385.728 116.383V120.047C385.734 120.849 385.846 121.456 386.064 121.867V122H383.783ZM381.916 120.43C382.249 120.43 382.557 120.357 382.838 120.211C383.119 120.06 383.327 119.859 383.463 119.609V118.156H382.619C381.489 118.156 380.887 118.547 380.814 119.328L380.807 119.461C380.807 119.742 380.906 119.974 381.103 120.156C381.301 120.339 381.572 120.43 381.916 120.43ZM394.496 120.117H400.23V122H391.566V120.625L397.191 112.523H391.574V110.625H400.105V111.969L394.496 120.117ZM395.902 107.641C396.262 107.641 396.543 107.742 396.746 107.945C396.954 108.143 397.059 108.398 397.059 108.711C397.059 109.023 396.954 109.279 396.746 109.477C396.543 109.674 396.262 109.773 395.902 109.773C395.548 109.773 395.267 109.674 395.059 109.477C394.85 109.279 394.746 109.023 394.746 108.711C394.746 108.398 394.85 108.143 395.059 107.945C395.272 107.742 395.553 107.641 395.902 107.641ZM405.493 122.156C404.253 122.156 403.243 121.776 402.462 121.016C401.686 120.255 401.298 119.242 401.298 117.977V117.758C401.298 116.909 401.462 116.151 401.79 115.484C402.118 114.812 402.582 114.297 403.181 113.938C403.785 113.573 404.472 113.391 405.243 113.391C406.399 113.391 407.308 113.755 407.97 114.484C408.636 115.214 408.97 116.247 408.97 117.586V118.508H403.587C403.66 119.06 403.878 119.503 404.243 119.836C404.613 120.169 405.079 120.336 405.642 120.336C406.511 120.336 407.191 120.021 407.681 119.391L408.79 120.633C408.451 121.112 407.993 121.487 407.415 121.758C406.837 122.023 406.196 122.156 405.493 122.156ZM405.235 115.219C404.787 115.219 404.423 115.37 404.142 115.672C403.865 115.974 403.688 116.406 403.61 116.969H406.751V116.789C406.74 116.289 406.605 115.904 406.345 115.633C406.084 115.357 405.714 115.219 405.235 115.219ZM415.217 115.664C414.909 115.622 414.639 115.602 414.404 115.602C413.55 115.602 412.99 115.891 412.725 116.469V122H410.467V113.547H412.6L412.662 114.555C413.115 113.779 413.743 113.391 414.545 113.391C414.795 113.391 415.029 113.424 415.248 113.492L415.217 115.664ZM415.886 117.695C415.886 116.857 416.047 116.109 416.37 115.453C416.693 114.797 417.156 114.289 417.761 113.93C418.37 113.57 419.076 113.391 419.878 113.391C421.018 113.391 421.948 113.74 422.667 114.438C423.391 115.135 423.794 116.083 423.878 117.281L423.893 117.859C423.893 119.156 423.531 120.198 422.808 120.984C422.084 121.766 421.112 122.156 419.893 122.156C418.675 122.156 417.701 121.766 416.972 120.984C416.248 120.203 415.886 119.141 415.886 117.797V117.695ZM418.143 117.859C418.143 118.661 418.294 119.276 418.597 119.703C418.899 120.125 419.331 120.336 419.893 120.336C420.44 120.336 420.867 120.128 421.175 119.711C421.482 119.289 421.636 118.617 421.636 117.695C421.636 116.909 421.482 116.299 421.175 115.867C420.867 115.435 420.435 115.219 419.878 115.219C419.326 115.219 418.899 115.435 418.597 115.867C418.294 116.294 418.143 116.958 418.143 117.859ZM427.609 113.547L427.68 114.492C428.279 113.758 429.088 113.391 430.109 113.391C431.198 113.391 431.945 113.82 432.351 114.68C432.945 113.82 433.792 113.391 434.891 113.391C435.807 113.391 436.489 113.659 436.937 114.195C437.385 114.727 437.609 115.529 437.609 116.602V122H435.344V116.609C435.344 116.13 435.25 115.781 435.062 115.562C434.875 115.339 434.544 115.227 434.07 115.227C433.393 115.227 432.924 115.549 432.664 116.195L432.672 122H430.414V116.617C430.414 116.128 430.318 115.773 430.125 115.555C429.932 115.336 429.604 115.227 429.141 115.227C428.5 115.227 428.036 115.492 427.75 116.023V122H425.492V113.547H427.609ZM444.138 119.664C444.138 119.388 444 119.172 443.723 119.016C443.453 118.854 443.015 118.711 442.411 118.586C440.401 118.164 439.395 117.31 439.395 116.023C439.395 115.273 439.705 114.648 440.325 114.148C440.95 113.643 441.765 113.391 442.77 113.391C443.843 113.391 444.7 113.643 445.341 114.148C445.987 114.654 446.309 115.31 446.309 116.117H444.052C444.052 115.794 443.947 115.529 443.739 115.32C443.531 115.107 443.205 115 442.763 115C442.382 115 442.088 115.086 441.88 115.258C441.671 115.43 441.567 115.648 441.567 115.914C441.567 116.164 441.684 116.367 441.919 116.523C442.158 116.674 442.559 116.807 443.122 116.922C443.684 117.031 444.158 117.156 444.544 117.297C445.737 117.734 446.333 118.492 446.333 119.57C446.333 120.341 446.002 120.966 445.341 121.445C444.679 121.919 443.825 122.156 442.778 122.156C442.07 122.156 441.44 122.031 440.888 121.781C440.341 121.526 439.911 121.18 439.598 120.742C439.286 120.299 439.13 119.823 439.13 119.312H441.27C441.291 119.714 441.44 120.021 441.716 120.234C441.992 120.448 442.362 120.555 442.825 120.555C443.257 120.555 443.583 120.474 443.802 120.312C444.026 120.146 444.138 119.93 444.138 119.664ZM451.072 118.609L450.26 119.422V122H448.002V110H450.26V116.648L450.697 116.086L452.861 113.547H455.572L452.517 117.07L455.838 122H453.244L451.072 118.609ZM459.139 122H456.874V113.547H459.139V122ZM456.741 111.359C456.741 111.021 456.853 110.742 457.077 110.523C457.306 110.305 457.616 110.195 458.007 110.195C458.392 110.195 458.699 110.305 458.929 110.523C459.158 110.742 459.272 111.021 459.272 111.359C459.272 111.703 459.155 111.984 458.921 112.203C458.692 112.422 458.387 112.531 458.007 112.531C457.626 112.531 457.319 112.422 457.085 112.203C456.856 111.984 456.741 111.703 456.741 111.359ZM465.105 122.156C463.866 122.156 462.855 121.776 462.074 121.016C461.298 120.255 460.91 119.242 460.91 117.977V117.758C460.91 116.909 461.074 116.151 461.402 115.484C461.73 114.812 462.194 114.297 462.793 113.938C463.397 113.573 464.084 113.391 464.855 113.391C466.012 113.391 466.92 113.755 467.582 114.484C468.249 115.214 468.582 116.247 468.582 117.586V118.508H463.199C463.272 119.06 463.491 119.503 463.855 119.836C464.225 120.169 464.691 120.336 465.254 120.336C466.124 120.336 466.803 120.021 467.293 119.391L468.402 120.633C468.064 121.112 467.605 121.487 467.027 121.758C466.449 122.023 465.808 122.156 465.105 122.156ZM464.848 115.219C464.4 115.219 464.035 115.37 463.754 115.672C463.478 115.974 463.301 116.406 463.223 116.969H466.363V116.789C466.353 116.289 466.217 115.904 465.957 115.633C465.696 115.357 465.327 115.219 464.848 115.219ZM469.751 117.711C469.751 116.414 470.058 115.37 470.673 114.578C471.292 113.786 472.126 113.391 473.173 113.391C474.1 113.391 474.821 113.708 475.337 114.344L475.43 113.547H477.477V121.719C477.477 122.458 477.308 123.102 476.97 123.648C476.636 124.195 476.165 124.612 475.555 124.898C474.946 125.185 474.233 125.328 473.415 125.328C472.795 125.328 472.191 125.203 471.602 124.953C471.014 124.708 470.569 124.391 470.266 124L471.266 122.625C471.829 123.255 472.511 123.57 473.313 123.57C473.912 123.57 474.378 123.409 474.712 123.086C475.045 122.768 475.212 122.315 475.212 121.727V121.273C474.691 121.862 474.006 122.156 473.157 122.156C472.141 122.156 471.319 121.76 470.688 120.969C470.063 120.172 469.751 119.117 469.751 117.805V117.711ZM472.009 117.875C472.009 118.641 472.162 119.242 472.47 119.68C472.777 120.112 473.199 120.328 473.735 120.328C474.423 120.328 474.915 120.07 475.212 119.555V116C474.91 115.484 474.423 115.227 473.751 115.227C473.209 115.227 472.782 115.448 472.47 115.891C472.162 116.333 472.009 116.995 472.009 117.875ZM479.076 117.695C479.076 116.857 479.237 116.109 479.56 115.453C479.883 114.797 480.347 114.289 480.951 113.93C481.56 113.57 482.266 113.391 483.068 113.391C484.209 113.391 485.139 113.74 485.857 114.438C486.581 115.135 486.985 116.083 487.068 117.281L487.084 117.859C487.084 119.156 486.722 120.198 485.998 120.984C485.274 121.766 484.303 122.156 483.084 122.156C481.865 122.156 480.891 121.766 480.162 120.984C479.438 120.203 479.076 119.141 479.076 117.797V117.695ZM481.334 117.859C481.334 118.661 481.485 119.276 481.787 119.703C482.089 120.125 482.521 120.336 483.084 120.336C483.631 120.336 484.058 120.128 484.365 119.711C484.672 119.289 484.826 118.617 484.826 117.695C484.826 116.909 484.672 116.299 484.365 115.867C484.058 115.435 483.625 115.219 483.068 115.219C482.516 115.219 482.089 115.435 481.787 115.867C481.485 116.294 481.334 116.958 481.334 117.859Z" fill="#0085FF"/>
<path d="M501.219 118.93L502.328 113.547H504.508L502.352 122H500.461L498.859 116.68L497.258 122H495.375L493.219 113.547H495.398L496.5 118.922L498.047 113.547H499.68L501.219 118.93ZM519.822 120.562C519.4 121.068 518.803 121.461 518.033 121.742C517.262 122.018 516.408 122.156 515.47 122.156C514.486 122.156 513.621 121.943 512.876 121.516C512.137 121.083 511.564 120.458 511.158 119.641C510.757 118.823 510.551 117.862 510.54 116.758V115.984C510.54 114.849 510.73 113.867 511.111 113.039C511.496 112.206 512.048 111.57 512.767 111.133C513.491 110.69 514.337 110.469 515.306 110.469C516.655 110.469 517.71 110.792 518.47 111.438C519.23 112.078 519.681 113.013 519.822 114.242H517.54C517.436 113.591 517.204 113.115 516.845 112.812C516.491 112.51 516.001 112.359 515.376 112.359C514.579 112.359 513.973 112.659 513.556 113.258C513.139 113.857 512.928 114.747 512.923 115.93V116.656C512.923 117.849 513.15 118.75 513.603 119.359C514.056 119.969 514.72 120.273 515.595 120.273C516.475 120.273 517.103 120.086 517.478 119.711V117.75H515.345V116.023H519.822V120.562ZM521.756 117.711C521.756 116.393 522.05 115.344 522.639 114.562C523.232 113.781 524.042 113.391 525.068 113.391C525.891 113.391 526.571 113.698 527.107 114.312V110H529.373V122H527.334L527.225 121.102C526.662 121.805 525.938 122.156 525.053 122.156C524.058 122.156 523.258 121.766 522.654 120.984C522.055 120.198 521.756 119.107 521.756 117.711ZM524.014 117.875C524.014 118.667 524.152 119.273 524.428 119.695C524.704 120.117 525.105 120.328 525.631 120.328C526.329 120.328 526.821 120.034 527.107 119.445V116.109C526.826 115.521 526.339 115.227 525.646 115.227C524.558 115.227 524.014 116.109 524.014 117.875ZM536.549 122C536.445 121.797 536.37 121.544 536.323 121.242C535.776 121.852 535.065 122.156 534.19 122.156C533.362 122.156 532.674 121.917 532.128 121.438C531.586 120.958 531.315 120.354 531.315 119.625C531.315 118.729 531.646 118.042 532.307 117.562C532.974 117.083 533.935 116.841 535.19 116.836H536.229V116.352C536.229 115.961 536.128 115.648 535.924 115.414C535.727 115.18 535.411 115.062 534.979 115.062C534.599 115.062 534.299 115.154 534.081 115.336C533.867 115.518 533.76 115.768 533.76 116.086H531.503C531.503 115.596 531.654 115.143 531.956 114.727C532.258 114.31 532.685 113.984 533.237 113.75C533.789 113.51 534.409 113.391 535.096 113.391C536.138 113.391 536.964 113.654 537.573 114.18C538.188 114.701 538.495 115.435 538.495 116.383V120.047C538.5 120.849 538.612 121.456 538.831 121.867V122H536.549ZM534.682 120.43C535.016 120.43 535.323 120.357 535.604 120.211C535.885 120.06 536.094 119.859 536.229 119.609V118.156H535.385C534.255 118.156 533.654 118.547 533.581 119.328L533.573 119.461C533.573 119.742 533.672 119.974 533.87 120.156C534.068 120.339 534.339 120.43 534.682 120.43ZM542.835 113.547L542.906 114.523C543.51 113.768 544.32 113.391 545.335 113.391C546.231 113.391 546.898 113.654 547.335 114.18C547.773 114.706 547.997 115.492 548.007 116.539V122H545.749V116.594C545.749 116.115 545.645 115.768 545.437 115.555C545.229 115.336 544.882 115.227 544.398 115.227C543.762 115.227 543.286 115.497 542.968 116.039V122H540.71V113.547H542.835ZM544.835 110H547.296L545.132 112.422H543.296L544.835 110ZM554.832 119.664C554.832 119.388 554.694 119.172 554.418 119.016C554.147 118.854 553.71 118.711 553.105 118.586C551.095 118.164 550.09 117.31 550.09 116.023C550.09 115.273 550.4 114.648 551.02 114.148C551.645 113.643 552.46 113.391 553.465 113.391C554.538 113.391 555.395 113.643 556.035 114.148C556.681 114.654 557.004 115.31 557.004 116.117H554.746C554.746 115.794 554.642 115.529 554.434 115.32C554.225 115.107 553.9 115 553.457 115C553.077 115 552.783 115.086 552.574 115.258C552.366 115.43 552.262 115.648 552.262 115.914C552.262 116.164 552.379 116.367 552.613 116.523C552.853 116.674 553.254 116.807 553.816 116.922C554.379 117.031 554.853 117.156 555.238 117.297C556.431 117.734 557.027 118.492 557.027 119.57C557.027 120.341 556.697 120.966 556.035 121.445C555.374 121.919 554.52 122.156 553.473 122.156C552.764 122.156 552.134 122.031 551.582 121.781C551.035 121.526 550.605 121.18 550.293 120.742C549.98 120.299 549.824 119.823 549.824 119.312H551.965C551.986 119.714 552.134 120.021 552.41 120.234C552.686 120.448 553.056 120.555 553.52 120.555C553.952 120.555 554.277 120.474 554.496 120.312C554.72 120.146 554.832 119.93 554.832 119.664ZM562.087 118.609L561.274 119.422V122H559.016V110H561.274V116.648L561.712 116.086L563.876 113.547H566.587L563.532 117.07L566.852 122H564.258L562.087 118.609ZM573.154 121.141C572.596 121.818 571.826 122.156 570.841 122.156C569.935 122.156 569.242 121.896 568.763 121.375C568.289 120.854 568.047 120.091 568.036 119.086V113.547H570.294V119.008C570.294 119.888 570.695 120.328 571.497 120.328C572.263 120.328 572.789 120.062 573.076 119.531V113.547H575.341V122H573.216L573.154 121.141Z" fill="white"/>
<path d="M203.929 69.1167H214.193V73H199.095V49.5391H203.929V69.1167ZM222.348 73H217.675V55.5654H222.348V73ZM217.401 51.0537C217.401 50.3555 217.632 49.7808 218.094 49.3296C218.567 48.8784 219.206 48.6528 220.011 48.6528C220.806 48.6528 221.44 48.8784 221.913 49.3296C222.385 49.7808 222.622 50.3555 222.622 51.0537C222.622 51.7627 222.38 52.3428 221.897 52.7939C221.424 53.2451 220.796 53.4707 220.011 53.4707C219.227 53.4707 218.593 53.2451 218.11 52.7939C217.637 52.3428 217.401 51.7627 217.401 51.0537ZM234.209 69.5679C235.068 69.5679 235.767 69.3315 236.304 68.8589C236.841 68.3862 237.12 67.7578 237.142 66.9736H241.508C241.497 68.1553 241.175 69.2402 240.541 70.2285C239.908 71.2061 239.038 71.9688 237.931 72.5166C236.835 73.0537 235.622 73.3223 234.289 73.3223C231.797 73.3223 229.831 72.5327 228.392 70.9536C226.953 69.3638 226.233 67.1724 226.233 64.3794V64.0732C226.233 61.3877 226.947 59.2446 228.376 57.644C229.805 56.0435 231.765 55.2432 234.257 55.2432C236.438 55.2432 238.184 55.8662 239.494 57.1123C240.815 58.3477 241.487 59.9966 241.508 62.0591H237.142C237.12 61.1567 236.841 60.4263 236.304 59.8677C235.767 59.2983 235.058 59.0137 234.177 59.0137C233.092 59.0137 232.27 59.4111 231.711 60.2061C231.164 60.9902 230.89 62.2686 230.89 64.041V64.5244C230.89 66.3184 231.164 67.6074 231.711 68.3916C232.259 69.1758 233.092 69.5679 234.209 69.5679ZM252.95 73.3223C250.394 73.3223 248.31 72.5381 246.698 70.9697C245.098 69.4014 244.298 67.312 244.298 64.7017V64.2505C244.298 62.4995 244.636 60.9365 245.313 59.5615C245.989 58.1758 246.945 57.1123 248.181 56.3711C249.427 55.6191 250.845 55.2432 252.435 55.2432C254.819 55.2432 256.694 55.9951 258.058 57.499C259.433 59.0029 260.121 61.1353 260.121 63.896V65.7974H249.019C249.169 66.936 249.62 67.8491 250.372 68.5366C251.135 69.2241 252.096 69.5679 253.256 69.5679C255.05 69.5679 256.452 68.918 257.462 67.6182L259.75 70.1802C259.052 71.1685 258.107 71.9419 256.914 72.5005C255.722 73.0483 254.401 73.3223 252.95 73.3223ZM252.419 59.0137C251.495 59.0137 250.743 59.3252 250.163 59.9482C249.593 60.5713 249.228 61.4629 249.067 62.623H255.545V62.2524C255.523 61.2212 255.244 60.4263 254.707 59.8677C254.17 59.2983 253.407 59.0137 252.419 59.0137ZM273.98 71.2275C272.83 72.624 271.241 73.3223 269.21 73.3223C267.341 73.3223 265.912 72.7852 264.924 71.7109C263.947 70.6367 263.447 69.063 263.426 66.9897V55.5654H268.082V66.8286C268.082 68.644 268.91 69.5518 270.564 69.5518C272.143 69.5518 273.228 69.0039 273.819 67.9082V55.5654H278.492V73H274.109L273.98 71.2275ZM287.13 55.5654L287.275 57.5151C288.51 56.0005 290.181 55.2432 292.286 55.2432C294.531 55.2432 296.073 56.1294 296.911 57.9019C298.135 56.1294 299.881 55.2432 302.148 55.2432C304.038 55.2432 305.445 55.7964 306.369 56.9028C307.293 57.9985 307.755 59.6528 307.755 61.8657V73H303.082V61.8818C303.082 60.8936 302.889 60.1738 302.502 59.7227C302.115 59.2607 301.433 59.0298 300.456 59.0298C299.059 59.0298 298.092 59.6958 297.555 61.0278L297.571 73H292.915V61.8979C292.915 60.8882 292.716 60.1577 292.318 59.7065C291.921 59.2554 291.244 59.0298 290.288 59.0298C288.967 59.0298 288.011 59.5776 287.42 60.6733V73H282.763V55.5654H287.13ZM340.662 61.8013C340.662 64.1108 340.253 66.1357 339.437 67.876C338.621 69.6162 337.45 70.959 335.924 71.9043C334.41 72.8496 332.669 73.3223 330.704 73.3223C328.759 73.3223 327.024 72.855 325.499 71.9204C323.974 70.9858 322.792 69.6538 321.954 67.9243C321.116 66.1841 320.692 64.186 320.681 61.9302V60.77C320.681 58.4604 321.095 56.4302 321.922 54.6792C322.76 52.9175 323.936 51.5693 325.451 50.6348C326.976 49.6895 328.716 49.2168 330.671 49.2168C332.626 49.2168 334.361 49.6895 335.876 50.6348C337.401 51.5693 338.578 52.9175 339.405 54.6792C340.243 56.4302 340.662 58.4551 340.662 60.7539V61.8013ZM335.763 60.7378C335.763 58.2778 335.323 56.4087 334.442 55.1304C333.561 53.8521 332.304 53.2129 330.671 53.2129C329.049 53.2129 327.798 53.8467 326.917 55.1143C326.036 56.3711 325.59 58.2188 325.58 60.6572V61.8013C325.58 64.1968 326.02 66.0552 326.901 67.3765C327.782 68.6978 329.049 69.3584 330.704 69.3584C332.326 69.3584 333.572 68.7246 334.442 67.457C335.312 66.1787 335.752 64.3203 335.763 61.8818V60.7378ZM343.95 64.1538C343.95 61.479 344.584 59.3252 345.852 57.6924C347.13 56.0596 348.849 55.2432 351.008 55.2432C352.92 55.2432 354.408 55.8984 355.471 57.209L355.665 55.5654H359.886V72.4199C359.886 73.9453 359.537 75.272 358.839 76.3999C358.152 77.5278 357.179 78.3872 355.923 78.978C354.666 79.5688 353.194 79.8643 351.508 79.8643C350.229 79.8643 348.983 79.6064 347.769 79.0908C346.555 78.5859 345.637 77.9307 345.014 77.125L347.076 74.2891C348.237 75.5889 349.644 76.2388 351.298 76.2388C352.533 76.2388 353.495 75.9058 354.182 75.2397C354.87 74.5845 355.214 73.6499 355.214 72.436V71.5015C354.139 72.7153 352.727 73.3223 350.976 73.3223C348.881 73.3223 347.184 72.5059 345.884 70.873C344.595 69.2295 343.95 67.0542 343.95 64.3472V64.1538ZM348.607 64.4922C348.607 66.0713 348.924 67.312 349.558 68.2144C350.192 69.106 351.062 69.5518 352.168 69.5518C353.586 69.5518 354.601 69.02 355.214 67.9565V60.625C354.591 59.5615 353.586 59.0298 352.2 59.0298C351.083 59.0298 350.202 59.4863 349.558 60.3994C348.924 61.3125 348.607 62.6768 348.607 64.4922ZM363.514 64.1216C363.514 62.3921 363.847 60.8506 364.513 59.4971C365.179 58.1436 366.135 57.0962 367.381 56.355C368.638 55.6138 370.093 55.2432 371.747 55.2432C374.1 55.2432 376.018 55.9629 377.5 57.4023C378.993 58.8418 379.826 60.7969 379.997 63.2676L380.03 64.46C380.03 67.1348 379.283 69.2832 377.79 70.9053C376.297 72.5166 374.293 73.3223 371.78 73.3223C369.266 73.3223 367.257 72.5166 365.753 70.9053C364.26 69.2939 363.514 67.1025 363.514 64.3311V64.1216ZM368.17 64.46C368.17 66.1143 368.482 67.3818 369.105 68.2627C369.728 69.1328 370.62 69.5679 371.78 69.5679C372.908 69.5679 373.789 69.1382 374.422 68.2788C375.056 67.4087 375.373 66.0229 375.373 64.1216C375.373 62.4995 375.056 61.2427 374.422 60.3511C373.789 59.4595 372.897 59.0137 371.747 59.0137C370.609 59.0137 369.728 59.4595 369.105 60.3511C368.482 61.2319 368.17 62.6016 368.17 64.46ZM372.666 48.25H377.742L373.278 53.2451H369.492L372.666 48.25ZM388.571 73H383.899V48.25H388.571V73ZM397.468 55.5654L397.613 57.5796C398.859 56.022 400.529 55.2432 402.624 55.2432C404.472 55.2432 405.847 55.7856 406.749 56.8706C407.651 57.9556 408.113 59.5776 408.135 61.7368V73H403.478V61.8496C403.478 60.8613 403.263 60.147 402.833 59.7065C402.404 59.2554 401.689 59.0298 400.69 59.0298C399.38 59.0298 398.397 59.5884 397.742 60.7056V73H393.085V55.5654H397.468ZM411.713 64.1216C411.713 62.3921 412.046 60.8506 412.712 59.4971C413.379 58.1436 414.335 57.0962 415.581 56.355C416.837 55.6138 418.293 55.2432 419.947 55.2432C422.3 55.2432 424.217 55.9629 425.7 57.4023C427.193 58.8418 428.025 60.7969 428.197 63.2676L428.23 64.46C428.23 67.1348 427.483 69.2832 425.99 70.9053C424.497 72.5166 422.493 73.3223 419.98 73.3223C417.466 73.3223 415.457 72.5166 413.953 70.9053C412.46 69.2939 411.713 67.1025 411.713 64.3311V64.1216ZM416.37 64.46C416.37 66.1143 416.682 67.3818 417.305 68.2627C417.928 69.1328 418.819 69.5679 419.98 69.5679C421.108 69.5679 421.988 69.1382 422.622 68.2788C423.256 67.4087 423.573 66.0229 423.573 64.1216C423.573 62.4995 423.256 61.2427 422.622 60.3511C421.988 59.4595 421.097 59.0137 419.947 59.0137C418.809 59.0137 417.928 59.4595 417.305 60.3511C416.682 61.2319 416.37 62.6016 416.37 64.46ZM438.189 66.0068L436.513 67.6826V73H431.857V48.25H436.513V61.9624L437.416 60.8022L441.879 55.5654H447.471L441.17 62.8325L448.018 73H442.669L438.189 66.0068ZM459.686 68.1821C459.686 67.6128 459.401 67.167 458.832 66.8447C458.273 66.5117 457.371 66.2163 456.125 65.9585C451.979 65.0884 449.905 63.3267 449.905 60.6733C449.905 59.1265 450.544 57.8374 451.823 56.8062C453.112 55.7642 454.793 55.2432 456.866 55.2432C459.079 55.2432 460.846 55.7642 462.168 56.8062C463.5 57.8481 464.166 59.2017 464.166 60.8667H459.509C459.509 60.2007 459.294 59.6528 458.864 59.2231C458.435 58.7827 457.763 58.5625 456.85 58.5625C456.066 58.5625 455.459 58.7397 455.029 59.0942C454.6 59.4487 454.385 59.8999 454.385 60.4478C454.385 60.9634 454.626 61.3823 455.11 61.7046C455.604 62.0161 456.431 62.29 457.591 62.5264C458.751 62.752 459.729 63.0098 460.524 63.2998C462.984 64.2021 464.214 65.7651 464.214 67.9888C464.214 69.5786 463.532 70.8677 462.168 71.856C460.803 72.8335 459.042 73.3223 456.882 73.3223C455.421 73.3223 454.122 73.0645 452.983 72.5488C451.855 72.0225 450.969 71.3081 450.324 70.4058C449.68 69.4927 449.357 68.5098 449.357 67.457H453.772C453.815 68.2842 454.122 68.918 454.691 69.3584C455.26 69.7988 456.023 70.019 456.979 70.019C457.871 70.019 458.542 69.8525 458.993 69.5195C459.455 69.1758 459.686 68.73 459.686 68.1821ZM473.336 69.2456H481.86V73H467.39V70.1641L475.592 59.3359H467.632V55.5654H481.602V58.3208L473.336 69.2456ZM491.11 51.2793V55.5654H494.091V58.9814H491.11V67.6826C491.11 68.3271 491.234 68.7891 491.481 69.0684C491.728 69.3477 492.201 69.4873 492.899 69.4873C493.415 69.4873 493.871 69.4497 494.269 69.3745V72.9033C493.355 73.1826 492.415 73.3223 491.449 73.3223C488.183 73.3223 486.518 71.6733 486.454 68.3755V58.9814H483.908V55.5654H486.454V51.2793H491.11ZM507.548 73C507.333 72.5811 507.177 72.0601 507.08 71.437C505.952 72.6938 504.486 73.3223 502.681 73.3223C500.973 73.3223 499.555 72.8281 498.427 71.8398C497.31 70.8516 496.752 69.6055 496.752 68.1016C496.752 66.2539 497.434 64.8359 498.798 63.8477C500.173 62.8594 502.155 62.3599 504.744 62.3491H506.887V61.3501C506.887 60.5444 506.677 59.8999 506.258 59.4165C505.85 58.9331 505.2 58.6914 504.309 58.6914C503.525 58.6914 502.907 58.8794 502.456 59.2554C502.015 59.6313 501.795 60.147 501.795 60.8022H497.138C497.138 59.7925 497.45 58.8579 498.073 57.9985C498.696 57.1392 499.577 56.4678 500.716 55.9844C501.854 55.4902 503.133 55.2432 504.55 55.2432C506.699 55.2432 508.402 55.7856 509.658 56.8706C510.926 57.9448 511.56 59.4595 511.56 61.4146V68.9717C511.57 70.626 511.801 71.8774 512.253 72.7261V73H507.548ZM503.696 69.7612C504.384 69.7612 505.018 69.6108 505.598 69.3101C506.178 68.9985 506.608 68.585 506.887 68.0693V65.0723H505.147C502.816 65.0723 501.575 65.8779 501.424 67.4893L501.408 67.7632C501.408 68.3433 501.612 68.8213 502.021 69.1973C502.429 69.5732 502.987 69.7612 503.696 69.7612ZM521.374 58.3369L523.662 57.5796V60.2544L521.374 61.0117V73H516.718V62.5586L514.591 63.2676V60.5928L516.718 59.8838V48.25H521.374V58.3369ZM533.993 69.5679C534.852 69.5679 535.55 69.3315 536.087 68.8589C536.625 68.3862 536.904 67.7578 536.925 66.9736H541.292C541.281 68.1553 540.959 69.2402 540.325 70.2285C539.691 71.2061 538.821 71.9688 537.715 72.5166C536.619 73.0537 535.405 73.3223 534.073 73.3223C531.581 73.3223 529.615 72.5327 528.176 70.9536C526.736 69.3638 526.017 67.1724 526.017 64.3794V64.0732C526.017 61.3877 526.731 59.2446 528.16 57.644C529.588 56.0435 531.549 55.2432 534.041 55.2432C536.222 55.2432 537.967 55.8662 539.278 57.1123C540.599 58.3477 541.271 59.9966 541.292 62.0591H536.925C536.904 61.1567 536.625 60.4263 536.087 59.8677C535.55 59.2983 534.841 59.0137 533.961 59.0137C532.876 59.0137 532.054 59.4111 531.495 60.2061C530.947 60.9902 530.673 62.2686 530.673 64.041V64.5244C530.673 66.3184 530.947 67.6074 531.495 68.3916C532.043 69.1758 532.876 69.5679 533.993 69.5679ZM554.764 72.9194C554.582 72.479 554.442 71.9849 554.346 71.437C553.218 72.6938 551.751 73.3223 549.947 73.3223C548.239 73.3223 546.821 72.8281 545.693 71.8398C544.576 70.8516 544.017 69.6055 544.017 68.1016C544.017 66.2539 544.699 64.8359 546.063 63.8477C547.438 62.8594 549.42 62.3599 552.009 62.3491H554.152V61.3501C554.152 60.5444 553.943 59.8999 553.524 59.4165C553.116 58.9331 552.466 58.6914 551.574 58.6914C550.79 58.6914 550.172 58.8794 549.721 59.2554C549.281 59.6313 549.06 60.147 549.06 60.8022H544.404C544.404 59.7925 544.715 58.8579 545.338 57.9985C545.961 57.1392 546.842 56.4678 547.981 55.9844C549.119 55.4902 550.398 55.2432 551.816 55.2432C553.964 55.2432 555.667 55.7856 556.924 56.8706C558.191 57.9448 558.825 59.4595 558.825 61.4146V68.9717C558.836 70.626 559.067 71.8774 559.518 72.7261V73H558.744C557.95 73.4512 557.337 73.8916 556.908 74.3213C556.478 74.7617 556.263 75.2666 556.263 75.8359C556.263 76.5342 556.617 76.8833 557.326 76.8833C557.681 76.8833 558.111 76.7759 558.616 76.561L559.083 79.0908C558.299 79.5635 557.412 79.7998 556.424 79.7998C555.35 79.7998 554.469 79.499 553.782 78.8975C553.105 78.3066 552.766 77.4849 552.766 76.4321C552.766 75.0249 553.432 73.854 554.764 72.9194ZM550.962 69.7612C551.649 69.7612 552.283 69.6108 552.863 69.3101C553.443 68.9985 553.873 68.585 554.152 68.0693V65.0723H552.412C550.081 65.0723 548.84 65.8779 548.69 67.4893L548.674 67.7632C548.674 68.3433 548.878 68.8213 549.286 69.1973C549.694 69.5732 550.253 69.7612 550.962 69.7612ZM570.412 69.5679C571.272 69.5679 571.97 69.3315 572.507 68.8589C573.044 68.3862 573.323 67.7578 573.345 66.9736H577.711C577.701 68.1553 577.378 69.2402 576.745 70.2285C576.111 71.2061 575.241 71.9688 574.134 72.5166C573.039 73.0537 571.825 73.3223 570.493 73.3223C568.001 73.3223 566.035 72.5327 564.595 70.9536C563.156 69.3638 562.436 67.1724 562.436 64.3794V64.0732C562.436 61.3877 563.15 59.2446 564.579 57.644C566.008 56.0435 567.968 55.2432 570.46 55.2432C572.641 55.2432 574.387 55.8662 575.697 57.1123C577.019 58.3477 577.69 59.9966 577.711 62.0591H573.345C573.323 61.1567 573.044 60.4263 572.507 59.8677C571.97 59.2983 571.261 59.0137 570.38 59.0137C569.295 59.0137 568.473 59.4111 567.915 60.2061C567.367 60.9902 567.093 62.2686 567.093 64.041V64.5244C567.093 66.3184 567.367 67.6074 567.915 68.3916C568.462 69.1758 569.295 69.5679 570.412 69.5679ZM589.154 73.3223C586.597 73.3223 584.513 72.5381 582.902 70.9697C581.301 69.4014 580.501 67.312 580.501 64.7017V64.2505C580.501 62.4995 580.839 60.9365 581.516 59.5615C582.193 58.1758 583.149 57.1123 584.384 56.3711C585.63 55.6191 587.048 55.2432 588.638 55.2432C591.023 55.2432 592.897 55.9951 594.261 57.499C595.636 59.0029 596.324 61.1353 596.324 63.896V65.7974H585.222C585.372 66.936 585.823 67.8491 586.575 68.5366C587.338 69.2241 588.3 69.5679 589.46 69.5679C591.254 69.5679 592.656 68.918 593.665 67.6182L595.953 70.1802C595.255 71.1685 594.31 71.9419 593.117 72.5005C591.925 73.0483 590.604 73.3223 589.154 73.3223ZM588.622 59.0137C587.698 59.0137 586.946 59.3252 586.366 59.9482C585.797 60.5713 585.431 61.4629 585.27 62.623H591.748V62.2524C591.726 61.2212 591.447 60.4263 590.91 59.8677C590.373 59.2983 589.61 59.0137 588.622 59.0137Z" fill="white"/>
<rect x="821" y="177" width="41" height="247" rx="20.5" fill="white"/>
<path d="M982.504 369V226.812H1028.99C1044.42 226.812 1056.01 230.003 1063.75 236.383C1071.57 242.763 1075.47 252.203 1075.47 264.703C1075.47 271.344 1073.58 277.236 1069.81 282.379C1066.03 287.457 1060.89 291.396 1054.38 294.195C1062.06 296.344 1068.12 300.445 1072.54 306.5C1077.04 312.49 1079.28 319.651 1079.28 327.984C1079.28 340.745 1075.15 350.771 1066.88 358.062C1058.61 365.354 1046.92 369 1031.82 369H982.504ZM1001.25 302.496V353.668H1032.21C1040.93 353.668 1047.8 351.422 1052.82 346.93C1057.89 342.372 1060.43 336.122 1060.43 328.18C1060.43 311.057 1051.12 302.496 1032.5 302.496H1001.25ZM1001.25 287.457H1029.57C1037.78 287.457 1044.32 285.406 1049.2 281.305C1054.15 277.203 1056.62 271.637 1056.62 264.605C1056.62 256.793 1054.35 251.129 1049.79 247.613C1045.23 244.033 1038.3 242.242 1028.99 242.242H1001.25V287.457ZM1169.52 369C1168.47 366.917 1167.63 363.206 1166.98 357.867C1158.58 366.591 1148.55 370.953 1136.9 370.953C1126.48 370.953 1117.92 368.023 1111.21 362.164C1104.57 356.24 1101.25 348.753 1101.25 339.703C1101.25 328.701 1105.42 320.172 1113.75 314.117C1122.15 307.997 1133.94 304.938 1149.11 304.938H1166.68V296.637C1166.68 290.322 1164.8 285.309 1161.02 281.598C1157.24 277.822 1151.68 275.934 1144.32 275.934C1137.88 275.934 1132.47 277.561 1128.11 280.816C1123.75 284.072 1121.57 288.01 1121.57 292.633H1103.4C1103.4 287.359 1105.26 282.281 1108.97 277.398C1112.74 272.451 1117.82 268.544 1124.2 265.68C1130.65 262.815 1137.71 261.383 1145.39 261.383C1157.57 261.383 1167.11 264.443 1174.01 270.562C1180.91 276.617 1184.49 284.983 1184.75 295.66V344.293C1184.75 353.993 1185.99 361.708 1188.46 367.438V369H1169.52ZM1139.54 355.23C1145.2 355.23 1150.57 353.766 1155.65 350.836C1160.73 347.906 1164.4 344.098 1166.68 339.41V317.73H1152.52C1130.39 317.73 1119.32 324.208 1119.32 337.164C1119.32 342.828 1121.21 347.255 1124.98 350.445C1128.76 353.635 1133.61 355.23 1139.54 355.23ZM1230.06 354.254H1291.88V369H1207.99V355.719L1266.29 278.277H1208.87V263.336H1288.95V276.129L1230.06 354.254ZM1377.52 369C1376.48 366.917 1375.64 363.206 1374.98 357.867C1366.59 366.591 1356.56 370.953 1344.91 370.953C1334.49 370.953 1325.93 368.023 1319.22 362.164C1312.58 356.24 1309.26 348.753 1309.26 339.703C1309.26 328.701 1313.43 320.172 1321.76 314.117C1330.16 307.997 1341.94 304.938 1357.11 304.938H1374.69V296.637C1374.69 290.322 1372.8 285.309 1369.03 281.598C1365.25 277.822 1359.68 275.934 1352.33 275.934C1345.88 275.934 1340.48 277.561 1336.12 280.816C1331.76 284.072 1329.57 288.01 1329.57 292.633H1311.41C1311.41 287.359 1313.27 282.281 1316.98 277.398C1320.75 272.451 1325.83 268.544 1332.21 265.68C1338.66 262.815 1345.72 261.383 1353.4 261.383C1365.58 261.383 1375.11 264.443 1382.02 270.562C1388.92 276.617 1392.5 284.983 1392.76 295.66V344.293C1392.76 353.993 1393.99 361.708 1396.47 367.438V369H1377.52ZM1347.54 355.23C1353.21 355.23 1358.58 353.766 1363.66 350.836C1368.73 347.906 1372.41 344.098 1374.69 339.41V317.73H1360.53C1338.4 317.73 1327.33 324.208 1327.33 337.164C1327.33 342.828 1329.22 347.255 1332.99 350.445C1336.77 353.635 1341.62 355.23 1347.54 355.23ZM1504.18 324.176L1506.92 342.926L1510.92 326.031L1539.05 226.812H1554.87L1582.31 326.031L1586.21 343.219L1589.24 324.078L1611.31 226.812H1630.16L1595.69 369H1578.6L1549.3 265.387L1547.05 254.547L1544.81 265.387L1514.44 369H1497.35L1462.97 226.812H1481.72L1504.18 324.176ZM1667.86 369H1649.79V263.336H1667.86V369ZM1648.32 235.309C1648.32 232.379 1649.2 229.905 1650.96 227.887C1652.78 225.868 1655.45 224.859 1658.97 224.859C1662.48 224.859 1665.15 225.868 1666.98 227.887C1668.8 229.905 1669.71 232.379 1669.71 235.309C1669.71 238.238 1668.8 240.68 1666.98 242.633C1665.15 244.586 1662.48 245.562 1658.97 245.562C1655.45 245.562 1652.78 244.586 1650.96 242.633C1649.2 240.68 1648.32 238.238 1648.32 235.309ZM1740.71 370.953C1726.38 370.953 1714.73 366.266 1705.75 356.891C1696.76 347.451 1692.27 334.853 1692.27 319.098V315.777C1692.27 305.296 1694.26 295.953 1698.23 287.75C1702.26 279.482 1707.86 273.036 1715.02 268.414C1722.25 263.727 1730.06 261.383 1738.46 261.383C1752.2 261.383 1762.88 265.908 1770.49 274.957C1778.11 284.007 1781.92 296.962 1781.92 313.824V321.344H1710.34C1710.6 331.76 1713.62 340.191 1719.42 346.637C1725.28 353.017 1732.7 356.207 1741.68 356.207C1748.06 356.207 1753.47 354.905 1757.89 352.301C1762.32 349.697 1766.2 346.246 1769.52 341.949L1780.55 350.543C1771.7 364.15 1758.42 370.953 1740.71 370.953ZM1738.46 276.227C1731.17 276.227 1725.05 278.896 1720.1 284.234C1715.15 289.508 1712.09 296.93 1710.92 306.5H1763.85V305.133C1763.33 295.953 1760.86 288.857 1756.43 283.844C1752 278.766 1746.01 276.227 1738.46 276.227ZM1798.52 315.289C1798.52 299.078 1802.36 286.057 1810.04 276.227C1817.73 266.331 1827.78 261.383 1840.22 261.383C1852.59 261.383 1862.39 265.615 1869.61 274.078V219H1887.68V369H1871.08L1870.2 357.672C1862.97 366.526 1852.91 370.953 1840.02 370.953C1827.78 370.953 1817.79 365.94 1810.04 355.914C1802.36 345.888 1798.52 332.802 1798.52 316.656V315.289ZM1816.59 317.34C1816.59 329.319 1819.06 338.694 1824.01 345.465C1828.96 352.236 1835.79 355.621 1844.52 355.621C1855.97 355.621 1864.34 350.478 1869.61 340.191V291.656C1864.21 281.695 1855.91 276.715 1844.71 276.715C1835.86 276.715 1828.96 280.133 1824.01 286.969C1819.06 293.805 1816.59 303.928 1816.59 317.34ZM1932.8 354.254H1994.61V369H1910.73V355.719L1969.03 278.277H1911.61V263.336H1991.68V276.129L1932.8 354.254ZM2049.59 342.535L2074.2 263.336H2093.54L2051.06 385.309C2044.48 402.887 2034.03 411.676 2019.71 411.676L2016.29 411.383L2009.55 410.113V395.465L2014.44 395.855C2020.56 395.855 2025.31 394.618 2028.7 392.145C2032.15 389.671 2034.98 385.146 2037.19 378.57L2041.2 367.828L2003.5 263.336H2023.23L2049.59 342.535Z" fill="white"/>
</svg>
