<svg width="736" height="560" viewBox="0 0 736 560" fill="none" xmlns="http://www.w3.org/2000/svg">
<path d="M183 77H153V498H183V77Z" fill="white"/>
<path d="M597 77H153V87H597V77Z" fill="white"/>
<path d="M597 77H585V157H597V77Z" fill="white"/>
<path d="M337 471H153V498H337V471Z" fill="white"/>
<path d="M350.5 299C378 243 427 223 473.5 225L447 248.5C406.5 258 381.5 278.5 364.5 320.5L350.5 299Z" fill="white"/>
<path d="M446.5 461C529 470 578 404 559.5 339.5L581.5 323C619 408 539.5 509 433.5 480.5L446.5 461Z" fill="white"/>
<path d="M251 217.5C234 216.5 229.5 218.5 215.5 222.5C290 308 345.893 413.727 388.5 550.5C453.5 400 552 311.5 723 220C691 218.5 673.549 217.696 641 217.5H633C501.467 295.245 447.984 353.662 389 484.5C356.147 372.228 328.379 313.647 261 217.5H251Z" fill="white"/>
<path d="M723 169.5C560 257.5 449.5 351 389 501L386 494C341 352.5 283.5 249.5 216.5 173C232.107 166.197 247 164.5 257.5 169C271.5 175 312 238 375.5 348.5C425.5 259.5 510.5 197.531 562 175C586 164.5 657.523 168.115 723 169.5Z" fill="url(#paint0_linear)"/>
<path d="M305.25 111H302.984V102.547H305.25V111ZM302.852 100.359C302.852 100.021 302.964 99.7422 303.188 99.5234C303.417 99.3047 303.727 99.1953 304.117 99.1953C304.503 99.1953 304.81 99.3047 305.039 99.5234C305.268 99.7422 305.383 100.021 305.383 100.359C305.383 100.703 305.266 100.984 305.031 101.203C304.802 101.422 304.497 101.531 304.117 101.531C303.737 101.531 303.43 101.422 303.195 101.203C302.966 100.984 302.852 100.703 302.852 100.359ZM309.442 102.547L309.513 103.492C310.112 102.758 310.922 102.391 311.942 102.391C313.031 102.391 313.778 102.82 314.185 103.68C314.778 102.82 315.625 102.391 316.724 102.391C317.64 102.391 318.323 102.659 318.771 103.195C319.218 103.727 319.442 104.529 319.442 105.602V111H317.177V105.609C317.177 105.13 317.083 104.781 316.896 104.562C316.708 104.339 316.377 104.227 315.903 104.227C315.226 104.227 314.757 104.549 314.497 105.195L314.505 111H312.247V105.617C312.247 105.128 312.151 104.773 311.958 104.555C311.765 104.336 311.437 104.227 310.974 104.227C310.333 104.227 309.869 104.492 309.583 105.023V111H307.325V102.547H309.442ZM321.51 109.891C321.51 109.531 321.63 109.24 321.869 109.016C322.114 108.792 322.419 108.68 322.783 108.68C323.153 108.68 323.458 108.792 323.697 109.016C323.942 109.24 324.064 109.531 324.064 109.891C324.064 110.245 323.945 110.534 323.705 110.758C323.465 110.977 323.158 111.086 322.783 111.086C322.413 111.086 322.109 110.977 321.869 110.758C321.63 110.534 321.51 110.245 321.51 109.891ZM336.496 108.016C336.496 107.573 336.34 107.234 336.027 107C335.715 106.76 335.152 106.51 334.34 106.25C333.527 105.984 332.884 105.724 332.41 105.469C331.118 104.771 330.473 103.831 330.473 102.648C330.473 102.034 330.645 101.487 330.988 101.008C331.337 100.523 331.835 100.146 332.48 99.875C333.131 99.6042 333.861 99.4688 334.668 99.4688C335.48 99.4688 336.204 99.6172 336.84 99.9141C337.475 100.206 337.967 100.62 338.316 101.156C338.671 101.693 338.848 102.302 338.848 102.984H336.504C336.504 102.464 336.34 102.06 336.012 101.773C335.684 101.482 335.223 101.336 334.629 101.336C334.056 101.336 333.611 101.458 333.293 101.703C332.975 101.943 332.816 102.26 332.816 102.656C332.816 103.026 333.001 103.336 333.371 103.586C333.746 103.836 334.296 104.07 335.02 104.289C336.353 104.69 337.324 105.188 337.934 105.781C338.543 106.375 338.848 107.115 338.848 108C338.848 108.984 338.475 109.758 337.73 110.32C336.986 110.878 335.983 111.156 334.723 111.156C333.848 111.156 333.051 110.997 332.332 110.68C331.613 110.357 331.064 109.917 330.684 109.359C330.309 108.802 330.121 108.156 330.121 107.422H332.473C332.473 108.677 333.223 109.305 334.723 109.305C335.28 109.305 335.715 109.193 336.027 108.969C336.34 108.74 336.496 108.422 336.496 108.016ZM343.204 100.469V102.547H344.649V104.203H343.204V108.422C343.204 108.734 343.264 108.958 343.384 109.094C343.504 109.229 343.733 109.297 344.071 109.297C344.321 109.297 344.543 109.279 344.735 109.242V110.953C344.293 111.089 343.837 111.156 343.368 111.156C341.785 111.156 340.978 110.357 340.946 108.758V104.203H339.712V102.547H340.946V100.469H343.204ZM350.006 111.156C348.766 111.156 347.756 110.776 346.975 110.016C346.199 109.255 345.811 108.242 345.811 106.977V106.758C345.811 105.909 345.975 105.151 346.303 104.484C346.631 103.812 347.094 103.297 347.693 102.938C348.297 102.573 348.985 102.391 349.756 102.391C350.912 102.391 351.821 102.755 352.482 103.484C353.149 104.214 353.482 105.247 353.482 106.586V107.508H348.1C348.172 108.06 348.391 108.503 348.756 108.836C349.126 109.169 349.592 109.336 350.154 109.336C351.024 109.336 351.704 109.021 352.193 108.391L353.303 109.633C352.964 110.112 352.506 110.487 351.928 110.758C351.35 111.023 350.709 111.156 350.006 111.156ZM349.748 104.219C349.3 104.219 348.936 104.37 348.654 104.672C348.378 104.974 348.201 105.406 348.123 105.969H351.264V105.789C351.253 105.289 351.118 104.904 350.857 104.633C350.597 104.357 350.227 104.219 349.748 104.219ZM355.597 111V104.203H354.339V102.547H355.597V101.828C355.597 100.88 355.867 100.146 356.409 99.625C356.956 99.099 357.719 98.8359 358.698 98.8359C359.011 98.8359 359.394 98.888 359.847 98.9922L359.823 100.742C359.636 100.695 359.407 100.672 359.136 100.672C358.287 100.672 357.862 101.07 357.862 101.867V102.547H359.542V104.203H357.862V111H355.597ZM365.82 111C365.716 110.797 365.641 110.544 365.594 110.242C365.047 110.852 364.336 111.156 363.461 111.156C362.633 111.156 361.945 110.917 361.398 110.438C360.857 109.958 360.586 109.354 360.586 108.625C360.586 107.729 360.917 107.042 361.578 106.562C362.245 106.083 363.206 105.841 364.461 105.836H365.5V105.352C365.5 104.961 365.398 104.648 365.195 104.414C364.997 104.18 364.682 104.062 364.25 104.062C363.87 104.062 363.57 104.154 363.352 104.336C363.138 104.518 363.031 104.768 363.031 105.086H360.773C360.773 104.596 360.924 104.143 361.227 103.727C361.529 103.31 361.956 102.984 362.508 102.75C363.06 102.51 363.68 102.391 364.367 102.391C365.409 102.391 366.234 102.654 366.844 103.18C367.458 103.701 367.766 104.435 367.766 105.383V109.047C367.771 109.849 367.883 110.456 368.102 110.867V111H365.82ZM363.953 109.43C364.286 109.43 364.594 109.357 364.875 109.211C365.156 109.06 365.365 108.859 365.5 108.609V107.156H364.656C363.526 107.156 362.924 107.547 362.852 108.328L362.844 108.461C362.844 108.742 362.943 108.974 363.141 109.156C363.338 109.339 363.609 109.43 363.953 109.43ZM371.786 102.547L371.856 103.523C372.461 102.768 373.27 102.391 374.286 102.391C375.182 102.391 375.849 102.654 376.286 103.18C376.724 103.706 376.948 104.492 376.958 105.539V111H374.7V105.594C374.7 105.115 374.596 104.768 374.388 104.555C374.179 104.336 373.833 104.227 373.349 104.227C372.713 104.227 372.237 104.497 371.919 105.039V111H369.661V102.547H371.786ZM383.783 111C383.679 110.797 383.603 110.544 383.557 110.242C383.01 110.852 382.299 111.156 381.424 111.156C380.596 111.156 379.908 110.917 379.361 110.438C378.82 109.958 378.549 109.354 378.549 108.625C378.549 107.729 378.879 107.042 379.541 106.562C380.208 106.083 381.169 105.841 382.424 105.836H383.463V105.352C383.463 104.961 383.361 104.648 383.158 104.414C382.96 104.18 382.645 104.062 382.213 104.062C381.833 104.062 381.533 104.154 381.314 104.336C381.101 104.518 380.994 104.768 380.994 105.086H378.736C378.736 104.596 378.887 104.143 379.189 103.727C379.491 103.31 379.919 102.984 380.471 102.75C381.023 102.51 381.643 102.391 382.33 102.391C383.372 102.391 384.197 102.654 384.807 103.18C385.421 103.701 385.728 104.435 385.728 105.383V109.047C385.734 109.849 385.846 110.456 386.064 110.867V111H383.783ZM381.916 109.43C382.249 109.43 382.557 109.357 382.838 109.211C383.119 109.06 383.327 108.859 383.463 108.609V107.156H382.619C381.489 107.156 380.887 107.547 380.814 108.328L380.807 108.461C380.807 108.742 380.906 108.974 381.103 109.156C381.301 109.339 381.572 109.43 381.916 109.43ZM394.496 109.117H400.23V111H391.566V109.625L397.191 101.523H391.574V99.625H400.105V100.969L394.496 109.117ZM395.902 96.6406C396.262 96.6406 396.543 96.7422 396.746 96.9453C396.954 97.1432 397.059 97.3984 397.059 97.7109C397.059 98.0234 396.954 98.2786 396.746 98.4766C396.543 98.6745 396.262 98.7734 395.902 98.7734C395.548 98.7734 395.267 98.6745 395.059 98.4766C394.85 98.2786 394.746 98.0234 394.746 97.7109C394.746 97.3984 394.85 97.1432 395.059 96.9453C395.272 96.7422 395.553 96.6406 395.902 96.6406ZM405.493 111.156C404.253 111.156 403.243 110.776 402.462 110.016C401.686 109.255 401.298 108.242 401.298 106.977V106.758C401.298 105.909 401.462 105.151 401.79 104.484C402.118 103.812 402.582 103.297 403.181 102.938C403.785 102.573 404.472 102.391 405.243 102.391C406.399 102.391 407.308 102.755 407.97 103.484C408.636 104.214 408.97 105.247 408.97 106.586V107.508H403.587C403.66 108.06 403.878 108.503 404.243 108.836C404.613 109.169 405.079 109.336 405.642 109.336C406.511 109.336 407.191 109.021 407.681 108.391L408.79 109.633C408.451 110.112 407.993 110.487 407.415 110.758C406.837 111.023 406.196 111.156 405.493 111.156ZM405.235 104.219C404.787 104.219 404.423 104.37 404.142 104.672C403.865 104.974 403.688 105.406 403.61 105.969H406.751V105.789C406.74 105.289 406.605 104.904 406.345 104.633C406.084 104.357 405.714 104.219 405.235 104.219ZM415.217 104.664C414.909 104.622 414.639 104.602 414.404 104.602C413.55 104.602 412.99 104.891 412.725 105.469V111H410.467V102.547H412.6L412.662 103.555C413.115 102.779 413.743 102.391 414.545 102.391C414.795 102.391 415.029 102.424 415.248 102.492L415.217 104.664ZM415.886 106.695C415.886 105.857 416.047 105.109 416.37 104.453C416.693 103.797 417.156 103.289 417.761 102.93C418.37 102.57 419.076 102.391 419.878 102.391C421.018 102.391 421.948 102.74 422.667 103.438C423.391 104.135 423.794 105.083 423.878 106.281L423.893 106.859C423.893 108.156 423.531 109.198 422.808 109.984C422.084 110.766 421.112 111.156 419.893 111.156C418.675 111.156 417.701 110.766 416.972 109.984C416.248 109.203 415.886 108.141 415.886 106.797V106.695ZM418.143 106.859C418.143 107.661 418.294 108.276 418.597 108.703C418.899 109.125 419.331 109.336 419.893 109.336C420.44 109.336 420.867 109.128 421.175 108.711C421.482 108.289 421.636 107.617 421.636 106.695C421.636 105.909 421.482 105.299 421.175 104.867C420.867 104.435 420.435 104.219 419.878 104.219C419.326 104.219 418.899 104.435 418.597 104.867C418.294 105.294 418.143 105.958 418.143 106.859ZM427.609 102.547L427.68 103.492C428.279 102.758 429.088 102.391 430.109 102.391C431.198 102.391 431.945 102.82 432.351 103.68C432.945 102.82 433.792 102.391 434.891 102.391C435.807 102.391 436.489 102.659 436.937 103.195C437.385 103.727 437.609 104.529 437.609 105.602V111H435.344V105.609C435.344 105.13 435.25 104.781 435.062 104.562C434.875 104.339 434.544 104.227 434.07 104.227C433.393 104.227 432.924 104.549 432.664 105.195L432.672 111H430.414V105.617C430.414 105.128 430.318 104.773 430.125 104.555C429.932 104.336 429.604 104.227 429.141 104.227C428.5 104.227 428.036 104.492 427.75 105.023V111H425.492V102.547H427.609ZM444.138 108.664C444.138 108.388 444 108.172 443.723 108.016C443.453 107.854 443.015 107.711 442.411 107.586C440.401 107.164 439.395 106.31 439.395 105.023C439.395 104.273 439.705 103.648 440.325 103.148C440.95 102.643 441.765 102.391 442.77 102.391C443.843 102.391 444.7 102.643 445.341 103.148C445.987 103.654 446.309 104.31 446.309 105.117H444.052C444.052 104.794 443.947 104.529 443.739 104.32C443.531 104.107 443.205 104 442.763 104C442.382 104 442.088 104.086 441.88 104.258C441.671 104.43 441.567 104.648 441.567 104.914C441.567 105.164 441.684 105.367 441.919 105.523C442.158 105.674 442.559 105.807 443.122 105.922C443.684 106.031 444.158 106.156 444.544 106.297C445.737 106.734 446.333 107.492 446.333 108.57C446.333 109.341 446.002 109.966 445.341 110.445C444.679 110.919 443.825 111.156 442.778 111.156C442.07 111.156 441.44 111.031 440.888 110.781C440.341 110.526 439.911 110.18 439.598 109.742C439.286 109.299 439.13 108.823 439.13 108.312H441.27C441.291 108.714 441.44 109.021 441.716 109.234C441.992 109.448 442.362 109.555 442.825 109.555C443.257 109.555 443.583 109.474 443.802 109.312C444.026 109.146 444.138 108.93 444.138 108.664ZM451.072 107.609L450.26 108.422V111H448.002V99H450.26V105.648L450.697 105.086L452.861 102.547H455.572L452.517 106.07L455.838 111H453.244L451.072 107.609ZM459.139 111H456.874V102.547H459.139V111ZM456.741 100.359C456.741 100.021 456.853 99.7422 457.077 99.5234C457.306 99.3047 457.616 99.1953 458.007 99.1953C458.392 99.1953 458.699 99.3047 458.929 99.5234C459.158 99.7422 459.272 100.021 459.272 100.359C459.272 100.703 459.155 100.984 458.921 101.203C458.692 101.422 458.387 101.531 458.007 101.531C457.626 101.531 457.319 101.422 457.085 101.203C456.856 100.984 456.741 100.703 456.741 100.359ZM465.105 111.156C463.866 111.156 462.855 110.776 462.074 110.016C461.298 109.255 460.91 108.242 460.91 106.977V106.758C460.91 105.909 461.074 105.151 461.402 104.484C461.73 103.812 462.194 103.297 462.793 102.938C463.397 102.573 464.084 102.391 464.855 102.391C466.012 102.391 466.92 102.755 467.582 103.484C468.249 104.214 468.582 105.247 468.582 106.586V107.508H463.199C463.272 108.06 463.491 108.503 463.855 108.836C464.225 109.169 464.691 109.336 465.254 109.336C466.124 109.336 466.803 109.021 467.293 108.391L468.402 109.633C468.064 110.112 467.605 110.487 467.027 110.758C466.449 111.023 465.808 111.156 465.105 111.156ZM464.848 104.219C464.4 104.219 464.035 104.37 463.754 104.672C463.478 104.974 463.301 105.406 463.223 105.969H466.363V105.789C466.353 105.289 466.217 104.904 465.957 104.633C465.696 104.357 465.327 104.219 464.848 104.219ZM469.751 106.711C469.751 105.414 470.058 104.37 470.673 103.578C471.292 102.786 472.126 102.391 473.173 102.391C474.1 102.391 474.821 102.708 475.337 103.344L475.43 102.547H477.477V110.719C477.477 111.458 477.308 112.102 476.97 112.648C476.636 113.195 476.165 113.612 475.555 113.898C474.946 114.185 474.233 114.328 473.415 114.328C472.795 114.328 472.191 114.203 471.602 113.953C471.014 113.708 470.569 113.391 470.266 113L471.266 111.625C471.829 112.255 472.511 112.57 473.313 112.57C473.912 112.57 474.378 112.409 474.712 112.086C475.045 111.768 475.212 111.315 475.212 110.727V110.273C474.691 110.862 474.006 111.156 473.157 111.156C472.141 111.156 471.319 110.76 470.688 109.969C470.063 109.172 469.751 108.117 469.751 106.805V106.711ZM472.009 106.875C472.009 107.641 472.162 108.242 472.47 108.68C472.777 109.112 473.199 109.328 473.735 109.328C474.423 109.328 474.915 109.07 475.212 108.555V105C474.91 104.484 474.423 104.227 473.751 104.227C473.209 104.227 472.782 104.448 472.47 104.891C472.162 105.333 472.009 105.995 472.009 106.875ZM479.076 106.695C479.076 105.857 479.237 105.109 479.56 104.453C479.883 103.797 480.347 103.289 480.951 102.93C481.56 102.57 482.266 102.391 483.068 102.391C484.209 102.391 485.139 102.74 485.857 103.438C486.581 104.135 486.985 105.083 487.068 106.281L487.084 106.859C487.084 108.156 486.722 109.198 485.998 109.984C485.274 110.766 484.303 111.156 483.084 111.156C481.865 111.156 480.891 110.766 480.162 109.984C479.438 109.203 479.076 108.141 479.076 106.797V106.695ZM481.334 106.859C481.334 107.661 481.485 108.276 481.787 108.703C482.089 109.125 482.521 109.336 483.084 109.336C483.631 109.336 484.058 109.128 484.365 108.711C484.672 108.289 484.826 107.617 484.826 106.695C484.826 105.909 484.672 105.299 484.365 104.867C484.058 104.435 483.625 104.219 483.068 104.219C482.516 104.219 482.089 104.435 481.787 104.867C481.485 105.294 481.334 105.958 481.334 106.859Z" fill="#FB00C4"/>
<path d="M501.219 107.93L502.328 102.547H504.508L502.352 111H500.461L498.859 105.68L497.258 111H495.375L493.219 102.547H495.398L496.5 107.922L498.047 102.547H499.68L501.219 107.93ZM519.822 109.562C519.4 110.068 518.803 110.461 518.033 110.742C517.262 111.018 516.408 111.156 515.47 111.156C514.486 111.156 513.621 110.943 512.876 110.516C512.137 110.083 511.564 109.458 511.158 108.641C510.757 107.823 510.551 106.862 510.54 105.758V104.984C510.54 103.849 510.73 102.867 511.111 102.039C511.496 101.206 512.048 100.57 512.767 100.133C513.491 99.6901 514.337 99.4688 515.306 99.4688C516.655 99.4688 517.71 99.7917 518.47 100.438C519.23 101.078 519.681 102.013 519.822 103.242H517.54C517.436 102.591 517.204 102.115 516.845 101.812C516.491 101.51 516.001 101.359 515.376 101.359C514.579 101.359 513.973 101.659 513.556 102.258C513.139 102.857 512.928 103.747 512.923 104.93V105.656C512.923 106.849 513.15 107.75 513.603 108.359C514.056 108.969 514.72 109.273 515.595 109.273C516.475 109.273 517.103 109.086 517.478 108.711V106.75H515.345V105.023H519.822V109.562ZM521.756 106.711C521.756 105.393 522.05 104.344 522.639 103.562C523.232 102.781 524.042 102.391 525.068 102.391C525.891 102.391 526.571 102.698 527.107 103.312V99H529.373V111H527.334L527.225 110.102C526.662 110.805 525.938 111.156 525.053 111.156C524.058 111.156 523.258 110.766 522.654 109.984C522.055 109.198 521.756 108.107 521.756 106.711ZM524.014 106.875C524.014 107.667 524.152 108.273 524.428 108.695C524.704 109.117 525.105 109.328 525.631 109.328C526.329 109.328 526.821 109.034 527.107 108.445V105.109C526.826 104.521 526.339 104.227 525.646 104.227C524.558 104.227 524.014 105.109 524.014 106.875ZM536.549 111C536.445 110.797 536.37 110.544 536.323 110.242C535.776 110.852 535.065 111.156 534.19 111.156C533.362 111.156 532.674 110.917 532.128 110.438C531.586 109.958 531.315 109.354 531.315 108.625C531.315 107.729 531.646 107.042 532.307 106.562C532.974 106.083 533.935 105.841 535.19 105.836H536.229V105.352C536.229 104.961 536.128 104.648 535.924 104.414C535.727 104.18 535.411 104.062 534.979 104.062C534.599 104.062 534.299 104.154 534.081 104.336C533.867 104.518 533.76 104.768 533.76 105.086H531.503C531.503 104.596 531.654 104.143 531.956 103.727C532.258 103.31 532.685 102.984 533.237 102.75C533.789 102.51 534.409 102.391 535.096 102.391C536.138 102.391 536.964 102.654 537.573 103.18C538.188 103.701 538.495 104.435 538.495 105.383V109.047C538.5 109.849 538.612 110.456 538.831 110.867V111H536.549ZM534.682 109.43C535.016 109.43 535.323 109.357 535.604 109.211C535.885 109.06 536.094 108.859 536.229 108.609V107.156H535.385C534.255 107.156 533.654 107.547 533.581 108.328L533.573 108.461C533.573 108.742 533.672 108.974 533.87 109.156C534.068 109.339 534.339 109.43 534.682 109.43ZM542.835 102.547L542.906 103.523C543.51 102.768 544.32 102.391 545.335 102.391C546.231 102.391 546.898 102.654 547.335 103.18C547.773 103.706 547.997 104.492 548.007 105.539V111H545.749V105.594C545.749 105.115 545.645 104.768 545.437 104.555C545.229 104.336 544.882 104.227 544.398 104.227C543.762 104.227 543.286 104.497 542.968 105.039V111H540.71V102.547H542.835ZM544.835 99H547.296L545.132 101.422H543.296L544.835 99ZM554.832 108.664C554.832 108.388 554.694 108.172 554.418 108.016C554.147 107.854 553.71 107.711 553.105 107.586C551.095 107.164 550.09 106.31 550.09 105.023C550.09 104.273 550.4 103.648 551.02 103.148C551.645 102.643 552.46 102.391 553.465 102.391C554.538 102.391 555.395 102.643 556.035 103.148C556.681 103.654 557.004 104.31 557.004 105.117H554.746C554.746 104.794 554.642 104.529 554.434 104.32C554.225 104.107 553.9 104 553.457 104C553.077 104 552.783 104.086 552.574 104.258C552.366 104.43 552.262 104.648 552.262 104.914C552.262 105.164 552.379 105.367 552.613 105.523C552.853 105.674 553.254 105.807 553.816 105.922C554.379 106.031 554.853 106.156 555.238 106.297C556.431 106.734 557.027 107.492 557.027 108.57C557.027 109.341 556.697 109.966 556.035 110.445C555.374 110.919 554.52 111.156 553.473 111.156C552.764 111.156 552.134 111.031 551.582 110.781C551.035 110.526 550.605 110.18 550.293 109.742C549.98 109.299 549.824 108.823 549.824 108.312H551.965C551.986 108.714 552.134 109.021 552.41 109.234C552.686 109.448 553.056 109.555 553.52 109.555C553.952 109.555 554.277 109.474 554.496 109.312C554.72 109.146 554.832 108.93 554.832 108.664ZM562.087 107.609L561.274 108.422V111H559.016V99H561.274V105.648L561.712 105.086L563.876 102.547H566.587L563.532 106.07L566.852 111H564.258L562.087 107.609ZM573.154 110.141C572.596 110.818 571.826 111.156 570.841 111.156C569.935 111.156 569.242 110.896 568.763 110.375C568.289 109.854 568.047 109.091 568.036 108.086V102.547H570.294V108.008C570.294 108.888 570.695 109.328 571.497 109.328C572.263 109.328 572.789 109.062 573.076 108.531V102.547H575.341V111H573.216L573.154 110.141Z" fill="white"/>
<path d="M203.929 58.1167H214.193V62H199.095V38.5391H203.929V58.1167ZM222.348 62H217.675V44.5654H222.348V62ZM217.401 40.0537C217.401 39.3555 217.632 38.7808 218.094 38.3296C218.567 37.8784 219.206 37.6528 220.011 37.6528C220.806 37.6528 221.44 37.8784 221.913 38.3296C222.385 38.7808 222.622 39.3555 222.622 40.0537C222.622 40.7627 222.38 41.3428 221.897 41.7939C221.424 42.2451 220.796 42.4707 220.011 42.4707C219.227 42.4707 218.593 42.2451 218.11 41.7939C217.637 41.3428 217.401 40.7627 217.401 40.0537ZM234.209 58.5679C235.068 58.5679 235.767 58.3315 236.304 57.8589C236.841 57.3862 237.12 56.7578 237.142 55.9736H241.508C241.497 57.1553 241.175 58.2402 240.541 59.2285C239.908 60.2061 239.038 60.9688 237.931 61.5166C236.835 62.0537 235.622 62.3223 234.289 62.3223C231.797 62.3223 229.831 61.5327 228.392 59.9536C226.953 58.3638 226.233 56.1724 226.233 53.3794V53.0732C226.233 50.3877 226.947 48.2446 228.376 46.644C229.805 45.0435 231.765 44.2432 234.257 44.2432C236.438 44.2432 238.184 44.8662 239.494 46.1123C240.815 47.3477 241.487 48.9966 241.508 51.0591H237.142C237.12 50.1567 236.841 49.4263 236.304 48.8677C235.767 48.2983 235.058 48.0137 234.177 48.0137C233.092 48.0137 232.27 48.4111 231.711 49.2061C231.164 49.9902 230.89 51.2686 230.89 53.041V53.5244C230.89 55.3184 231.164 56.6074 231.711 57.3916C232.259 58.1758 233.092 58.5679 234.209 58.5679ZM252.95 62.3223C250.394 62.3223 248.31 61.5381 246.698 59.9697C245.098 58.4014 244.298 56.312 244.298 53.7017V53.2505C244.298 51.4995 244.636 49.9365 245.313 48.5615C245.989 47.1758 246.945 46.1123 248.181 45.3711C249.427 44.6191 250.845 44.2432 252.435 44.2432C254.819 44.2432 256.694 44.9951 258.058 46.499C259.433 48.0029 260.121 50.1353 260.121 52.896V54.7974H249.019C249.169 55.936 249.62 56.8491 250.372 57.5366C251.135 58.2241 252.096 58.5679 253.256 58.5679C255.05 58.5679 256.452 57.918 257.462 56.6182L259.75 59.1802C259.052 60.1685 258.107 60.9419 256.914 61.5005C255.722 62.0483 254.401 62.3223 252.95 62.3223ZM252.419 48.0137C251.495 48.0137 250.743 48.3252 250.163 48.9482C249.593 49.5713 249.228 50.4629 249.067 51.623H255.545V51.2524C255.523 50.2212 255.244 49.4263 254.707 48.8677C254.17 48.2983 253.407 48.0137 252.419 48.0137ZM273.98 60.2275C272.83 61.624 271.241 62.3223 269.21 62.3223C267.341 62.3223 265.912 61.7852 264.924 60.7109C263.947 59.6367 263.447 58.063 263.426 55.9897V44.5654H268.082V55.8286C268.082 57.644 268.91 58.5518 270.564 58.5518C272.143 58.5518 273.228 58.0039 273.819 56.9082V44.5654H278.492V62H274.109L273.98 60.2275ZM287.13 44.5654L287.275 46.5151C288.51 45.0005 290.181 44.2432 292.286 44.2432C294.531 44.2432 296.073 45.1294 296.911 46.9019C298.135 45.1294 299.881 44.2432 302.148 44.2432C304.038 44.2432 305.445 44.7964 306.369 45.9028C307.293 46.9985 307.755 48.6528 307.755 50.8657V62H303.082V50.8818C303.082 49.8936 302.889 49.1738 302.502 48.7227C302.115 48.2607 301.433 48.0298 300.456 48.0298C299.059 48.0298 298.092 48.6958 297.555 50.0278L297.571 62H292.915V50.8979C292.915 49.8882 292.716 49.1577 292.318 48.7065C291.921 48.2554 291.244 48.0298 290.288 48.0298C288.967 48.0298 288.011 48.5776 287.42 49.6733V62H282.763V44.5654H287.13ZM340.662 50.8013C340.662 53.1108 340.253 55.1357 339.437 56.876C338.621 58.6162 337.45 59.959 335.924 60.9043C334.41 61.8496 332.669 62.3223 330.704 62.3223C328.759 62.3223 327.024 61.855 325.499 60.9204C323.974 59.9858 322.792 58.6538 321.954 56.9243C321.116 55.1841 320.692 53.186 320.681 50.9302V49.77C320.681 47.4604 321.095 45.4302 321.922 43.6792C322.76 41.9175 323.936 40.5693 325.451 39.6348C326.976 38.6895 328.716 38.2168 330.671 38.2168C332.626 38.2168 334.361 38.6895 335.876 39.6348C337.401 40.5693 338.578 41.9175 339.405 43.6792C340.243 45.4302 340.662 47.4551 340.662 49.7539V50.8013ZM335.763 49.7378C335.763 47.2778 335.323 45.4087 334.442 44.1304C333.561 42.8521 332.304 42.2129 330.671 42.2129C329.049 42.2129 327.798 42.8467 326.917 44.1143C326.036 45.3711 325.59 47.2188 325.58 49.6572V50.8013C325.58 53.1968 326.02 55.0552 326.901 56.3765C327.782 57.6978 329.049 58.3584 330.704 58.3584C332.326 58.3584 333.572 57.7246 334.442 56.457C335.312 55.1787 335.752 53.3203 335.763 50.8818V49.7378ZM343.95 53.1538C343.95 50.479 344.584 48.3252 345.852 46.6924C347.13 45.0596 348.849 44.2432 351.008 44.2432C352.92 44.2432 354.408 44.8984 355.471 46.209L355.665 44.5654H359.886V61.4199C359.886 62.9453 359.537 64.272 358.839 65.3999C358.152 66.5278 357.179 67.3872 355.923 67.978C354.666 68.5688 353.194 68.8643 351.508 68.8643C350.229 68.8643 348.983 68.6064 347.769 68.0908C346.555 67.5859 345.637 66.9307 345.014 66.125L347.076 63.2891C348.237 64.5889 349.644 65.2388 351.298 65.2388C352.533 65.2388 353.495 64.9058 354.182 64.2397C354.87 63.5845 355.214 62.6499 355.214 61.436V60.5015C354.139 61.7153 352.727 62.3223 350.976 62.3223C348.881 62.3223 347.184 61.5059 345.884 59.873C344.595 58.2295 343.95 56.0542 343.95 53.3472V53.1538ZM348.607 53.4922C348.607 55.0713 348.924 56.312 349.558 57.2144C350.192 58.106 351.062 58.5518 352.168 58.5518C353.586 58.5518 354.601 58.02 355.214 56.9565V49.625C354.591 48.5615 353.586 48.0298 352.2 48.0298C351.083 48.0298 350.202 48.4863 349.558 49.3994C348.924 50.3125 348.607 51.6768 348.607 53.4922ZM363.514 53.1216C363.514 51.3921 363.847 49.8506 364.513 48.4971C365.179 47.1436 366.135 46.0962 367.381 45.355C368.638 44.6138 370.093 44.2432 371.747 44.2432C374.1 44.2432 376.018 44.9629 377.5 46.4023C378.993 47.8418 379.826 49.7969 379.997 52.2676L380.03 53.46C380.03 56.1348 379.283 58.2832 377.79 59.9053C376.297 61.5166 374.293 62.3223 371.78 62.3223C369.266 62.3223 367.257 61.5166 365.753 59.9053C364.26 58.2939 363.514 56.1025 363.514 53.3311V53.1216ZM368.17 53.46C368.17 55.1143 368.482 56.3818 369.105 57.2627C369.728 58.1328 370.62 58.5679 371.78 58.5679C372.908 58.5679 373.789 58.1382 374.422 57.2788C375.056 56.4087 375.373 55.0229 375.373 53.1216C375.373 51.4995 375.056 50.2427 374.422 49.3511C373.789 48.4595 372.897 48.0137 371.747 48.0137C370.609 48.0137 369.728 48.4595 369.105 49.3511C368.482 50.2319 368.17 51.6016 368.17 53.46ZM372.666 37.25H377.742L373.278 42.2451H369.492L372.666 37.25ZM388.571 62H383.899V37.25H388.571V62ZM397.468 44.5654L397.613 46.5796C398.859 45.022 400.529 44.2432 402.624 44.2432C404.472 44.2432 405.847 44.7856 406.749 45.8706C407.651 46.9556 408.113 48.5776 408.135 50.7368V62H403.478V50.8496C403.478 49.8613 403.263 49.147 402.833 48.7065C402.404 48.2554 401.689 48.0298 400.69 48.0298C399.38 48.0298 398.397 48.5884 397.742 49.7056V62H393.085V44.5654H397.468ZM411.713 53.1216C411.713 51.3921 412.046 49.8506 412.712 48.4971C413.379 47.1436 414.335 46.0962 415.581 45.355C416.837 44.6138 418.293 44.2432 419.947 44.2432C422.3 44.2432 424.217 44.9629 425.7 46.4023C427.193 47.8418 428.025 49.7969 428.197 52.2676L428.23 53.46C428.23 56.1348 427.483 58.2832 425.99 59.9053C424.497 61.5166 422.493 62.3223 419.98 62.3223C417.466 62.3223 415.457 61.5166 413.953 59.9053C412.46 58.2939 411.713 56.1025 411.713 53.3311V53.1216ZM416.37 53.46C416.37 55.1143 416.682 56.3818 417.305 57.2627C417.928 58.1328 418.819 58.5679 419.98 58.5679C421.108 58.5679 421.988 58.1382 422.622 57.2788C423.256 56.4087 423.573 55.0229 423.573 53.1216C423.573 51.4995 423.256 50.2427 422.622 49.3511C421.988 48.4595 421.097 48.0137 419.947 48.0137C418.809 48.0137 417.928 48.4595 417.305 49.3511C416.682 50.2319 416.37 51.6016 416.37 53.46ZM438.189 55.0068L436.513 56.6826V62H431.857V37.25H436.513V50.9624L437.416 49.8022L441.879 44.5654H447.471L441.17 51.8325L448.018 62H442.669L438.189 55.0068ZM459.686 57.1821C459.686 56.6128 459.401 56.167 458.832 55.8447C458.273 55.5117 457.371 55.2163 456.125 54.9585C451.979 54.0884 449.905 52.3267 449.905 49.6733C449.905 48.1265 450.544 46.8374 451.823 45.8062C453.112 44.7642 454.793 44.2432 456.866 44.2432C459.079 44.2432 460.846 44.7642 462.168 45.8062C463.5 46.8481 464.166 48.2017 464.166 49.8667H459.509C459.509 49.2007 459.294 48.6528 458.864 48.2231C458.435 47.7827 457.763 47.5625 456.85 47.5625C456.066 47.5625 455.459 47.7397 455.029 48.0942C454.6 48.4487 454.385 48.8999 454.385 49.4478C454.385 49.9634 454.626 50.3823 455.11 50.7046C455.604 51.0161 456.431 51.29 457.591 51.5264C458.751 51.752 459.729 52.0098 460.524 52.2998C462.984 53.2021 464.214 54.7651 464.214 56.9888C464.214 58.5786 463.532 59.8677 462.168 60.856C460.803 61.8335 459.042 62.3223 456.882 62.3223C455.421 62.3223 454.122 62.0645 452.983 61.5488C451.855 61.0225 450.969 60.3081 450.324 59.4058C449.68 58.4927 449.357 57.5098 449.357 56.457H453.772C453.815 57.2842 454.122 57.918 454.691 58.3584C455.26 58.7988 456.023 59.019 456.979 59.019C457.871 59.019 458.542 58.8525 458.993 58.5195C459.455 58.1758 459.686 57.73 459.686 57.1821ZM473.336 58.2456H481.86V62H467.39V59.1641L475.592 48.3359H467.632V44.5654H481.602V47.3208L473.336 58.2456ZM491.11 40.2793V44.5654H494.091V47.9814H491.11V56.6826C491.11 57.3271 491.234 57.7891 491.481 58.0684C491.728 58.3477 492.201 58.4873 492.899 58.4873C493.415 58.4873 493.871 58.4497 494.269 58.3745V61.9033C493.355 62.1826 492.415 62.3223 491.449 62.3223C488.183 62.3223 486.518 60.6733 486.454 57.3755V47.9814H483.908V44.5654H486.454V40.2793H491.11ZM507.548 62C507.333 61.5811 507.177 61.0601 507.08 60.437C505.952 61.6938 504.486 62.3223 502.681 62.3223C500.973 62.3223 499.555 61.8281 498.427 60.8398C497.31 59.8516 496.752 58.6055 496.752 57.1016C496.752 55.2539 497.434 53.8359 498.798 52.8477C500.173 51.8594 502.155 51.3599 504.744 51.3491H506.887V50.3501C506.887 49.5444 506.677 48.8999 506.258 48.4165C505.85 47.9331 505.2 47.6914 504.309 47.6914C503.525 47.6914 502.907 47.8794 502.456 48.2554C502.015 48.6313 501.795 49.147 501.795 49.8022H497.138C497.138 48.7925 497.45 47.8579 498.073 46.9985C498.696 46.1392 499.577 45.4678 500.716 44.9844C501.854 44.4902 503.133 44.2432 504.55 44.2432C506.699 44.2432 508.402 44.7856 509.658 45.8706C510.926 46.9448 511.56 48.4595 511.56 50.4146V57.9717C511.57 59.626 511.801 60.8774 512.253 61.7261V62H507.548ZM503.696 58.7612C504.384 58.7612 505.018 58.6108 505.598 58.3101C506.178 57.9985 506.608 57.585 506.887 57.0693V54.0723H505.147C502.816 54.0723 501.575 54.8779 501.424 56.4893L501.408 56.7632C501.408 57.3433 501.612 57.8213 502.021 58.1973C502.429 58.5732 502.987 58.7612 503.696 58.7612ZM521.374 47.3369L523.662 46.5796V49.2544L521.374 50.0117V62H516.718V51.5586L514.591 52.2676V49.5928L516.718 48.8838V37.25H521.374V47.3369ZM533.993 58.5679C534.852 58.5679 535.55 58.3315 536.087 57.8589C536.625 57.3862 536.904 56.7578 536.925 55.9736H541.292C541.281 57.1553 540.959 58.2402 540.325 59.2285C539.691 60.2061 538.821 60.9688 537.715 61.5166C536.619 62.0537 535.405 62.3223 534.073 62.3223C531.581 62.3223 529.615 61.5327 528.176 59.9536C526.736 58.3638 526.017 56.1724 526.017 53.3794V53.0732C526.017 50.3877 526.731 48.2446 528.16 46.644C529.588 45.0435 531.549 44.2432 534.041 44.2432C536.222 44.2432 537.967 44.8662 539.278 46.1123C540.599 47.3477 541.271 48.9966 541.292 51.0591H536.925C536.904 50.1567 536.625 49.4263 536.087 48.8677C535.55 48.2983 534.841 48.0137 533.961 48.0137C532.876 48.0137 532.054 48.4111 531.495 49.2061C530.947 49.9902 530.673 51.2686 530.673 53.041V53.5244C530.673 55.3184 530.947 56.6074 531.495 57.3916C532.043 58.1758 532.876 58.5679 533.993 58.5679ZM554.764 61.9194C554.582 61.479 554.442 60.9849 554.346 60.437C553.218 61.6938 551.751 62.3223 549.947 62.3223C548.239 62.3223 546.821 61.8281 545.693 60.8398C544.576 59.8516 544.017 58.6055 544.017 57.1016C544.017 55.2539 544.699 53.8359 546.063 52.8477C547.438 51.8594 549.42 51.3599 552.009 51.3491H554.152V50.3501C554.152 49.5444 553.943 48.8999 553.524 48.4165C553.116 47.9331 552.466 47.6914 551.574 47.6914C550.79 47.6914 550.172 47.8794 549.721 48.2554C549.281 48.6313 549.06 49.147 549.06 49.8022H544.404C544.404 48.7925 544.715 47.8579 545.338 46.9985C545.961 46.1392 546.842 45.4678 547.981 44.9844C549.119 44.4902 550.398 44.2432 551.816 44.2432C553.964 44.2432 555.667 44.7856 556.924 45.8706C558.191 46.9448 558.825 48.4595 558.825 50.4146V57.9717C558.836 59.626 559.067 60.8774 559.518 61.7261V62H558.744C557.95 62.4512 557.337 62.8916 556.908 63.3213C556.478 63.7617 556.263 64.2666 556.263 64.8359C556.263 65.5342 556.617 65.8833 557.326 65.8833C557.681 65.8833 558.111 65.7759 558.616 65.561L559.083 68.0908C558.299 68.5635 557.412 68.7998 556.424 68.7998C555.35 68.7998 554.469 68.499 553.782 67.8975C553.105 67.3066 552.766 66.4849 552.766 65.4321C552.766 64.0249 553.432 62.854 554.764 61.9194ZM550.962 58.7612C551.649 58.7612 552.283 58.6108 552.863 58.3101C553.443 57.9985 553.873 57.585 554.152 57.0693V54.0723H552.412C550.081 54.0723 548.84 54.8779 548.69 56.4893L548.674 56.7632C548.674 57.3433 548.878 57.8213 549.286 58.1973C549.694 58.5732 550.253 58.7612 550.962 58.7612ZM570.412 58.5679C571.272 58.5679 571.97 58.3315 572.507 57.8589C573.044 57.3862 573.323 56.7578 573.345 55.9736H577.711C577.701 57.1553 577.378 58.2402 576.745 59.2285C576.111 60.2061 575.241 60.9688 574.134 61.5166C573.039 62.0537 571.825 62.3223 570.493 62.3223C568.001 62.3223 566.035 61.5327 564.595 59.9536C563.156 58.3638 562.436 56.1724 562.436 53.3794V53.0732C562.436 50.3877 563.15 48.2446 564.579 46.644C566.008 45.0435 567.968 44.2432 570.46 44.2432C572.641 44.2432 574.387 44.8662 575.697 46.1123C577.019 47.3477 577.69 48.9966 577.711 51.0591H573.345C573.323 50.1567 573.044 49.4263 572.507 48.8677C571.97 48.2983 571.261 48.0137 570.38 48.0137C569.295 48.0137 568.473 48.4111 567.915 49.2061C567.367 49.9902 567.093 51.2686 567.093 53.041V53.5244C567.093 55.3184 567.367 56.6074 567.915 57.3916C568.462 58.1758 569.295 58.5679 570.412 58.5679ZM589.154 62.3223C586.597 62.3223 584.513 61.5381 582.902 59.9697C581.301 58.4014 580.501 56.312 580.501 53.7017V53.2505C580.501 51.4995 580.839 49.9365 581.516 48.5615C582.193 47.1758 583.149 46.1123 584.384 45.3711C585.63 44.6191 587.048 44.2432 588.638 44.2432C591.023 44.2432 592.897 44.9951 594.261 46.499C595.636 48.0029 596.324 50.1353 596.324 52.896V54.7974H585.222C585.372 55.936 585.823 56.8491 586.575 57.5366C587.338 58.2241 588.3 58.5679 589.46 58.5679C591.254 58.5679 592.656 57.918 593.665 56.6182L595.953 59.1802C595.255 60.1685 594.31 60.9419 593.117 61.5005C591.925 62.0483 590.604 62.3223 589.154 62.3223ZM588.622 48.0137C587.698 48.0137 586.946 48.3252 586.366 48.9482C585.797 49.5713 585.431 50.4629 585.27 51.623H591.748V51.2524C591.726 50.2212 591.447 49.4263 590.91 48.8677C590.373 48.2983 589.61 48.0137 588.622 48.0137Z" fill="white"/>
<defs>
<linearGradient id="paint0_linear" x1="279" y1="349.5" x2="643.5" y2="349.5" gradientUnits="userSpaceOnUse">
<stop stop-color="#B544BF"/>
<stop offset="0.427083" stop-color="#FF008A"/>
<stop offset="0.979167" stop-color="#DF408C"/>
</linearGradient>
</defs>
</svg>
